<svg width="14" height="13" viewBox="0 0 14 13" fill="none" xmlns="http://www.w3.org/2000/svg">
<path d="M3.75 4.4375H10.625M3.75 7.1875H10.625M13.375 12L11.0895 10.8572C10.9163 10.7706 10.8297 10.7273 10.7388 10.6968C10.6583 10.6697 10.5753 10.6501 10.4911 10.6383C10.3962 10.625 10.2993 10.625 10.1057 10.625H3.2C2.42992 10.625 2.04489 10.625 1.75076 10.4751C1.49204 10.3433 1.28169 10.133 1.14987 9.87425C1 9.58014 1 9.19507 1 8.425V3.2C1 2.42992 1 2.04489 1.14987 1.75076C1.28169 1.49204 1.49204 1.28169 1.75076 1.14987C2.04489 1 2.42993 1 3.2 1H11.175C11.9451 1 12.3301 1 12.6243 1.14987C12.883 1.28169 13.0933 1.49204 13.2251 1.75076C13.375 2.04489 13.375 2.42993 13.375 3.2V12Z" stroke="black" stroke-linecap="round" stroke-linejoin="round"/>
</svg>
