<svg width="36" height="36" viewBox="0 0 36 36" fill="none" xmlns="http://www.w3.org/2000/svg">
<g clip-path="url(#clip0_50_31)">
<path d="M18 36.018C27.951 36.018 36.018 27.951 36.018 18C36.018 8.04887 27.951 -0.0180664 18 -0.0180664C8.04887 -0.0180664 -0.0180664 8.04887 -0.0180664 18C-0.0180664 27.951 8.04887 36.018 18 36.018Z" fill="#C13584"/>
<path d="M18 9.13714C20.8866 9.13714 21.2286 9.14813 22.3685 9.20011C23.4225 9.24822 23.995 9.42434 24.376 9.57236C24.8806 9.76849 25.2407 10.0027 25.6189 10.381C25.9973 10.7594 26.2315 11.1195 26.4277 11.6241C26.5757 12.0051 26.7518 12.5775 26.7999 13.6315C26.8519 14.7715 26.8629 15.1134 26.8629 17.9999C26.8629 20.8866 26.8519 21.2285 26.7999 22.3685C26.7518 23.4225 26.5757 23.9949 26.4277 24.3759C26.2315 24.8805 25.9973 25.2406 25.619 25.6189C25.2407 25.9972 24.8806 26.2315 24.376 26.4276C23.995 26.5757 23.4225 26.7517 22.3685 26.7998C21.2288 26.8518 20.8869 26.8629 18 26.8629C15.1132 26.8629 14.7714 26.8518 13.6316 26.7998C12.5775 26.7517 12.0051 26.5757 11.6241 26.4276C11.1195 26.2315 10.7594 25.9972 10.3811 25.6189C10.0028 25.2406 9.76849 24.8805 9.57236 24.3759C9.42434 23.9949 9.24822 23.4225 9.20011 22.3685C9.14813 21.2285 9.13714 20.8866 9.13714 17.9999C9.13714 15.1134 9.14813 14.7715 9.20011 13.6315C9.24822 12.5775 9.42434 12.0051 9.57236 11.6241C9.76849 11.1195 10.0027 10.7594 10.3811 10.3811C10.7594 10.0027 11.1195 9.76849 11.6241 9.57236C12.0051 9.42434 12.5775 9.24822 13.6316 9.20011C14.7715 9.14813 15.1134 9.13714 18 9.13714ZM18 7.18921C15.064 7.18921 14.6958 7.20164 13.5427 7.25425C12.3921 7.30678 11.6061 7.48948 10.9185 7.75678C10.2076 8.03299 9.6047 8.40263 9.00371 9.00371C8.40263 9.6047 8.03299 10.2076 7.75678 10.9185C7.48948 11.6061 7.30678 12.392 7.25425 13.5427C7.20164 14.6958 7.18921 15.064 7.18921 17.9999C7.18921 20.9361 7.20164 21.3042 7.25425 22.4572C7.30678 23.6079 7.48948 24.3938 7.75678 25.0815C8.03299 25.7924 8.40263 26.3952 9.00371 26.9963C9.6047 27.5973 10.2076 27.967 10.9185 28.2432C11.6061 28.5105 12.3921 28.6932 13.5427 28.7457C14.6958 28.7983 15.064 28.8107 18 28.8107C20.9361 28.8107 21.3043 28.7983 22.4573 28.7457C23.6079 28.6932 24.3939 28.5105 25.0816 28.2432C25.7925 27.967 26.3953 27.5973 26.9963 26.9963C27.5973 26.3952 27.967 25.7924 28.2433 25.0815C28.5106 24.3938 28.6933 23.6079 28.7458 22.4572C28.7984 21.3042 28.8108 20.9361 28.8108 17.9999C28.8108 15.064 28.7984 14.6958 28.7458 13.5427C28.6933 12.392 28.5106 11.6061 28.2433 10.9185C27.967 10.2076 27.5973 9.6047 26.9963 9.00371C26.3953 8.40263 25.7925 8.03299 25.0816 7.75678C24.3939 7.48948 23.6079 7.30678 22.4573 7.25425C21.3043 7.20164 20.9361 7.18921 18 7.18921Z" fill="white"/>
<path d="M18.0053 12.4534C14.9393 12.4534 12.4539 14.9388 12.4539 18.0048C12.4539 21.0708 14.9393 23.5563 18.0053 23.5563C21.0713 23.5563 23.5568 21.0708 23.5568 18.0048C23.5568 14.9388 21.0713 12.4534 18.0053 12.4534ZM18.0053 21.6084C16.0151 21.6084 14.4017 19.995 14.4017 18.0048C14.4017 16.0146 16.0151 14.4012 18.0053 14.4012C19.9956 14.4012 21.6089 16.0146 21.6089 18.0048C21.6089 19.995 19.9956 21.6084 18.0053 21.6084Z" fill="white"/>
<path d="M25.0726 12.231C25.0726 12.9474 24.4918 13.5283 23.7753 13.5283C23.0588 13.5283 22.478 12.9474 22.478 12.231C22.478 11.5145 23.0588 10.9336 23.7753 10.9336C24.4918 10.9336 25.0726 11.5145 25.0726 12.231Z" fill="white"/>
</g>
<defs>
<clipPath id="clip0_50_31">
<rect width="36" height="36" fill="white"/>
</clipPath>
</defs>
</svg>
