<svg width="36" height="36" viewBox="0 0 36 36" fill="none" xmlns="http://www.w3.org/2000/svg">
<g clip-path="url(#clip0_50_36)">
<path d="M0 18C0 8.05888 8.05888 0 18 0V0C27.9411 0 36 8.05888 36 18V18C36 27.9411 27.9411 36 18 36V36C8.05888 36 0 27.9411 0 18V18Z" fill="black"/>
<path d="M8.81995 22.4234L8.89195 22.6304C8.88295 22.6079 8.85595 22.5359 8.81995 22.4234ZM11.7404 17.7029C11.8709 16.5824 12.3119 15.9569 13.1399 15.3134C14.3279 14.4449 15.8084 14.9354 15.8084 14.9354V12.0149C16.1684 12.0059 16.5284 12.0284 16.8839 12.0824V15.8399C16.8839 15.8399 15.4034 15.3494 14.2154 16.2179C13.3874 16.8614 12.9464 17.4869 12.8159 18.6074C12.8114 19.2149 12.9194 20.0114 13.4234 20.6954C13.2974 20.6279 13.1714 20.5514 13.0409 20.4659C11.9384 19.6919 11.7359 18.5264 11.7404 17.7029ZM23.0084 6.6149C22.1939 5.6834 21.8834 4.7384 21.7709 4.0769H22.7969C22.7969 4.0769 22.5944 5.8139 24.0839 7.5194L24.1064 7.5419C23.7014 7.2809 23.3324 6.9659 23.0084 6.6149ZM27.9539 9.2609V12.9419C27.9539 12.9419 26.6444 12.8879 25.6724 12.6314C24.3179 12.2714 23.4494 11.7179 23.4494 11.7179C23.4494 11.7179 22.8464 11.3219 22.8014 11.2949V18.8999C22.8014 19.3229 22.6889 20.3804 22.3514 21.2624C21.9104 22.4144 21.2264 23.1749 21.1004 23.3279C21.1004 23.3279 20.2679 24.3539 18.8054 25.0424C17.4869 25.6634 16.3259 25.6499 15.9794 25.6634C15.9794 25.6634 13.9769 25.7444 12.1724 24.5249C11.7809 24.2549 11.4164 23.9489 11.0834 23.6114L11.0924 23.6204C12.8969 24.8444 14.8994 24.7589 14.8994 24.7589C15.2459 24.7454 16.4069 24.7589 17.7254 24.1379C19.1879 23.4494 20.0204 22.4234 20.0204 22.4234C20.1464 22.2704 20.8304 21.5099 21.2714 20.3579C21.6089 19.4759 21.7214 18.4184 21.7214 17.9954V10.3949C21.7709 10.4219 22.3694 10.8179 22.3694 10.8179C22.3694 10.8179 23.2379 11.3714 24.5924 11.7314C25.5644 11.9879 26.8739 12.0419 26.8739 12.0419V9.1574C27.3239 9.2609 27.7064 9.2879 27.9539 9.2609Z" fill="#EE1D52"/>
<path d="M26.874 9.1529V12.0374C26.874 12.0374 25.5645 11.9834 24.5925 11.7269C23.238 11.3669 22.3695 10.8134 22.3695 10.8134C22.3695 10.8134 21.7665 10.4174 21.7215 10.3904V17.9954C21.7215 18.4184 21.609 19.4759 21.2715 20.3579C20.8305 21.5099 20.1465 22.2704 20.0205 22.4234C20.0205 22.4234 19.188 23.4494 17.7255 24.1379C16.407 24.7589 15.246 24.7454 14.8995 24.7589C14.8995 24.7589 12.897 24.8399 11.0925 23.6204L11.0835 23.6114C10.8945 23.4179 10.7145 23.2154 10.548 23.0039C9.97197 22.2704 9.62097 21.4064 9.53097 21.1589V21.1544C9.38697 20.7269 9.08997 19.6919 9.13047 18.6974C9.20247 16.9379 9.79647 15.8534 9.95397 15.5834C10.368 14.8454 10.9125 14.1839 11.5515 13.6304C12.1185 13.1534 12.762 12.7709 13.4505 12.5054C14.1975 12.1904 14.9985 12.0239 15.8085 12.0104V14.9309C15.8085 14.9309 14.328 14.4404 13.14 15.3089C12.312 15.9524 11.871 16.5779 11.7405 17.6984C11.736 18.5219 11.9385 19.6874 13.0455 20.4659C13.176 20.5514 13.302 20.6279 13.428 20.6954C13.6215 20.9564 13.8555 21.1859 14.1255 21.3749C15.21 22.0904 16.1145 22.1399 17.2755 21.6764C18.0495 21.3659 18.63 20.6684 18.9 19.8899C19.071 19.4039 19.0665 18.9179 19.0665 18.4139V4.0769H21.7665C21.879 4.7384 22.185 5.6834 23.004 6.6149C23.3325 6.9659 23.7015 7.2809 24.102 7.5419C24.219 7.6724 24.8265 8.3024 25.6095 8.6939C26.01 8.8964 26.4375 9.0494 26.874 9.1529Z" fill="white"/>
<path d="M8.45544 20.2681L8.52294 20.4616C8.51394 20.4391 8.48694 20.3716 8.45544 20.2681Z" fill="#69C9D0"/>
<path d="M13.4504 12.51C12.7574 12.7755 12.1184 13.158 11.5514 13.635C10.9079 14.1885 10.3679 14.8545 9.95395 15.5925C9.79645 15.8625 9.20245 16.9425 9.13045 18.7065C9.08995 19.7055 9.39145 20.736 9.53095 21.1635V21.168C9.62095 21.411 9.97195 22.2795 10.5479 23.013C10.7144 23.2245 10.8944 23.427 11.0834 23.6205C10.4714 23.1975 9.93145 22.689 9.46795 22.1085C8.89645 21.384 8.54545 20.5245 8.45545 20.2725V20.2635C8.31145 19.836 8.00995 18.801 8.05495 17.802C8.12695 16.0425 8.72095 14.958 8.87845 14.688C9.29245 13.95 9.83245 13.284 10.4759 12.7305C11.0429 12.2535 11.6864 11.871 12.3749 11.6055C12.8069 11.4255 13.2569 11.295 13.7159 11.2095C14.4089 11.088 15.1154 11.079 15.8129 11.178V12.015C14.9984 12.0285 14.1974 12.195 13.4504 12.51Z" fill="#69C9D0"/>
<path d="M21.771 4.07711H19.071V18.4141C19.071 18.9181 19.071 19.4041 18.9045 19.8901C18.63 20.6641 18.0495 21.3661 17.28 21.6766C16.119 22.1446 15.21 22.0906 14.13 21.3751C13.86 21.1906 13.626 20.9611 13.4325 20.7001C14.355 21.1906 15.1785 21.1816 16.2 20.7721C16.974 20.4616 17.5545 19.7596 17.8245 18.9856C17.9955 18.4996 17.991 18.0136 17.991 17.5096V3.17261H21.7215C21.717 3.17261 21.6765 3.52811 21.771 4.07711ZM26.874 8.35661V9.15311C26.4375 9.04961 26.01 8.89661 25.6095 8.69411C24.831 8.30711 24.2235 7.67261 24.102 7.54211C24.2415 7.63211 24.381 7.71311 24.5295 7.78961C25.4835 8.26211 26.415 8.40611 26.874 8.35661Z" fill="#69C9D0"/>
<path d="M21.1419 30.5088C21.1419 30.5766 21.152 30.6414 21.1757 30.7062C21.1757 30.7121 21.1791 30.7151 21.1791 30.721C21.2905 31.0333 21.6216 31.2455 21.9966 31.2455V31.9999C21.5743 31.9999 21.2736 32.0117 20.8142 31.7759C20.2939 31.5048 20 31.0127 20 30.5C20 29.9725 20.3277 29.442 20.8885 29.1857C21.2939 29 21.6014 29 22 29V29.7544C21.527 29.7544 21.1453 30.0874 21.1453 30.5L21.1419 30.5088Z" fill="#69C9D0"/>
<path d="M22.8581 30.5088C22.8581 30.5766 22.848 30.6414 22.8243 30.7062C22.8243 30.7121 22.8209 30.7151 22.8209 30.721C22.7095 31.0333 22.3784 31.2455 22.0034 31.2455V31.9999C22.4223 31.9999 22.7264 32.0117 23.1824 31.7759C23.7061 31.5048 24 31.0127 24 30.5C24 29.9725 23.6723 29.442 23.1115 29.1857C22.7061 29 22.3986 29 22 29V29.7544C22.473 29.7544 22.8547 30.0874 22.8547 30.5V30.5088H22.8581Z" fill="#EE1D52"/>
<path d="M10 28H12.8394L12.5758 28.8263H11.8333V31.9872H10.9212V28.8263H10V28ZM17.5273 28V28.8263H18.4485V31.9872H19.3636V28.8263H20.1061L20.3697 28H17.5273ZM13.4576 28.9384C13.703 28.9384 13.9 28.7302 13.9 28.4708C13.9 28.2114 13.703 28.0032 13.4576 28.0032C13.2121 28.0032 13.0152 28.2114 13.0152 28.4708C13.0152 28.7302 13.2121 28.9384 13.4576 28.9384ZM13.0152 31.984H13.9121V29.2682H13.0152V31.984ZM17.1364 28.9159H16.0879L15.1848 29.8703V28H14.2939L14.2909 31.9808H15.1909V30.9432L15.4697 30.6741L16.3424 31.9808H17.303L16.0394 30.0721L17.1364 28.9159ZM25.7364 30.0753L26.8333 28.9159H25.7848L24.8818 29.8703V28H23.9909L23.9848 31.984H24.8848V30.9464L25.1667 30.6773L26.0394 31.984H27L25.7364 30.0753ZM23.4303 30.3699C23.4303 31.2698 22.7303 32 21.8667 32C21.003 32 20.303 31.2698 20.303 30.3699C20.303 29.47 21.003 28.7398 21.8667 28.7398C22.7303 28.7398 23.4303 29.47 23.4303 30.3699ZM22.6333 30.3699C22.6333 29.9215 22.2909 29.5596 21.8667 29.5596C21.4424 29.5596 21.1 29.9215 21.1 30.3699C21.1 30.8183 21.4424 31.1801 21.8667 31.1801C22.2909 31.1801 22.6333 30.8183 22.6333 30.3699Z" fill="white"/>
</g>
<defs>
<clipPath id="clip0_50_36">
<rect width="36" height="36" fill="white"/>
</clipPath>
</defs>
</svg>
